# xmcd
#
# Track frame offsets:
#   182
#   12197
#   24215
#   37472
#   44187
#   55795
#   66222
#   78912
#   91210
#   104310
#   114282
#   127505
#
# Disc length: 1862 seconds
#
# Revision: 5
# Processed by: cddbd v1.5.1PL0 Copyright (c) Steve Scherf et al.
# Submitted via: Media_Universe 3.0
#
DISCID=9007440c
DTITLE=Williams, Hank and Williams, Hank Jr. - Williams, Hank and Williams, Hank Jr. - Back To Back (Their Greatest Hits)
DYEAR=1900
DGENRE=Country
TTITLE0=Hank Williams, Jr. - Long Gone Lonesome Blues
TTITLE1=Hank Williams, Jr. - Mansion on the Hill
TTITLE2=Hank Williams, Jr. - You Win Again
TTITLE3=Hank Williams, Jr. - Kaw-Liga
TTITLE4=Hank Williams, Jr. - I'm So Lonesome I Could Cry
TTITLE5=Hank Williams, Jr. - Moanin' the Blues
TTITLE6=Hank Williams, Sr. - There's a Tear in My Beer
TTITLE7=Hank Williams, Sr. - Your Cheatin' Heart
TTITLE8=Hank Williams, Sr. - Jambalaya (On the Bayou)
TTITLE9=Hank Williams, Sr. - Honky Tonk Blues
TTITLE10=Hank Williams, Sr. - Hey, Good Lookin'
TTITLE11=Hank Williams, Sr. - Cold, Cold Heart
EXTD=
EXTT0=
EXTT1=
EXTT2=
EXTT3=
EXTT4=
EXTT5=
EXTT6=
EXTT7=
EXTT8=
EXTT9=
EXTT10=
EXTT11=
PLAYORDER=
